<svg width="75" height="49" viewBox="0 0 75 49" fill="none" xmlns="http://www.w3.org/2000/svg">
<path d="M29.4752 8.91978L29.486 9.01563L29.5318 9.10056C29.5735 9.17796 29.6634 9.31391 29.8922 9.51454C30.1898 9.77544 30.6402 10.0735 31.2562 10.4075C32.489 11.076 34.2482 11.8163 36.3996 12.6315C38.5431 13.4437 41.0294 14.3132 43.6996 15.2448L43.9474 15.3313L44.1121 14.8592L43.9474 15.3313C46.5398 16.2358 49.2932 17.1964 52.0359 18.2093C57.6831 20.2948 63.359 22.6279 67.5762 25.2031C69.6442 26.4659 71.4488 27.8408 72.6983 29.3214C73.9451 30.7987 74.6098 32.3442 74.4851 33.9719C74.3254 36.0558 72.7915 38.1433 70.3499 40.0317C67.9055 41.9223 64.5032 43.6537 60.4662 45.0494C52.393 47.8406 41.6473 49.3362 30.5809 48.0114C21.5415 46.9292 14.7121 45.1437 9.86003 42.9776C5.00673 40.811 2.08023 38.2373 0.987152 35.5892C-0.105025 32.9433 0.673022 30.3002 3.00916 28.0624C4.91123 26.2403 7.84029 24.689 11.5406 23.6227C11.4154 23.7086 11.2899 23.8097 11.1923 23.9265C11.0719 24.0707 10.9199 24.335 11.0248 24.6555C11.1194 24.9447 11.3565 25.0826 11.5334 25.1452C11.5735 25.1594 11.6147 25.1714 11.6565 25.1815C8.55045 26.1418 6.19567 27.4432 4.66767 28.9069C3.69073 29.8428 3.03245 30.8593 2.7375 31.9331C2.44087 33.013 2.521 34.1183 2.96941 35.2046C3.88241 37.4164 6.38994 39.722 10.9451 41.7555C15.5011 43.7894 22.0535 45.5246 30.9155 46.5855C41.5422 47.8577 51.8635 46.4169 59.5776 43.7498C63.4342 42.4165 66.6055 40.7882 68.8331 39.0653C71.064 37.3398 72.3 35.5597 72.4272 33.8989C72.528 32.5838 71.9765 31.2933 70.9245 30.0433C69.8739 28.795 68.2922 27.5468 66.239 26.2929C62.2168 23.8368 56.7229 21.5685 51.0984 19.4914C48.3768 18.4863 45.6421 17.5322 43.0446 16.6259L43.0421 16.625L42.8043 16.5421C40.1412 15.6129 37.6224 14.7323 35.4426 13.9063C33.2706 13.0833 31.388 12.2972 30.0143 11.5523C29.3273 11.1797 28.7333 10.7993 28.2894 10.4101C27.8473 10.0225 27.5043 9.58205 27.4307 9.10294C27.2594 7.98836 28.0575 6.94226 29.2194 6.04898C30.3852 5.15271 32.0262 4.32229 33.8484 3.59256C37.4973 2.13136 42.0981 0.985305 45.7342 0.511914C46.4015 0.425044 46.8696 0.799501 46.9363 1.12632C46.9933 1.40599 46.759 1.84809 46.0973 1.93424C42.6788 2.37929 38.2935 3.47102 34.8479 4.85081C33.123 5.54154 31.6896 6.28241 30.7319 7.01873C29.7849 7.74671 29.4139 8.37955 29.4752 8.91978Z" fill="#DEC79B" stroke="#DEC79B" stroke-linecap="round"/>
<path d="M15.6875 37.7374C14.5156 37.7374 13.5195 37.3273 12.6875 36.4952C11.8437 35.6398 11.4453 34.6437 11.4453 33.4952C11.4453 32.3585 11.8437 31.339 12.6875 30.4835C13.5078 29.6515 14.5156 29.253 15.6875 29.253C16.8711 29.253 17.8789 29.6632 18.6992 30.4835C19.5312 31.339 19.9414 32.3468 19.9414 33.5069C19.9414 34.6671 19.5312 35.6632 18.6992 36.4952C17.8789 37.3273 16.8711 37.7374 15.6875 37.7374ZM21.6758 38.628V33.4952C21.6758 31.8663 21.1015 30.4601 19.9297 29.2765C18.7695 28.0929 17.3398 27.5187 15.6875 27.5187C14.0351 27.5187 12.6289 28.0929 11.457 29.2765C10.2851 30.4601 9.71091 31.8663 9.71091 33.4952C9.71091 35.1241 10.2851 36.5304 11.457 37.714C12.6289 38.8858 14.0351 39.4718 15.6875 39.4718C16.2617 39.4718 16.8008 39.4015 17.3164 39.2491C17.832 39.0968 18.3242 38.8741 18.7929 38.5812C18.957 38.4757 19.1445 38.3468 19.3554 38.1827C19.5664 38.0187 19.7539 37.8546 19.9179 37.7023V38.6046C19.9179 38.8507 20 39.0616 20.1523 39.2374C20.3281 39.3898 20.539 39.4718 20.7969 39.4718C21.0312 39.4718 21.2304 39.3898 21.4062 39.214C21.5703 39.0499 21.6523 38.8507 21.6523 38.6046L21.6758 38.628ZM32.4195 37.7023L31.7398 37.6554C31.6109 37.6202 31.482 37.5851 31.3531 37.5499L30.9429 37.4562C30.8375 37.421 30.732 37.3858 30.6265 37.3507C30.5211 37.3155 30.4156 37.2804 30.3101 37.2452C30.275 37.2101 30.2281 37.1749 30.1695 37.1398L29.9937 37.0343L29.9117 36.9874C29.8765 36.964 29.8414 36.9405 29.8062 36.9054C29.7476 36.8702 29.7125 36.8468 29.7008 36.8351C29.7008 36.8233 29.689 36.8116 29.6773 36.7999C29.6187 36.7648 29.5601 36.7179 29.5015 36.6476C29.4664 36.6007 29.4195 36.5538 29.3609 36.5069L29.1968 36.3663C28.8101 35.9444 28.5054 35.4757 28.2945 34.9601C28.0836 34.4444 27.9781 33.8937 27.9781 33.296V23.7569C27.9781 23.5343 27.8961 23.3233 27.7203 23.1241C27.5328 22.9483 27.3218 22.8663 27.0992 22.8663C26.8765 22.8663 26.6656 22.9366 26.4664 23.1241C26.2906 23.2999 26.2086 23.5108 26.2086 23.7569V33.4249C26.2086 35.1007 26.8648 36.5304 28.0601 37.714C29.2672 38.8976 30.6968 39.4718 32.3492 39.4718H32.4078C32.6422 39.4718 32.8414 39.4015 33.0172 39.2257C33.1929 39.0616 33.2867 38.8507 33.2867 38.5929C33.2867 38.3468 33.1929 38.1476 33.0172 37.9835C32.8531 37.8194 32.6539 37.7257 32.4312 37.714L32.4195 37.7023ZM43.4562 37.6671C42.2609 37.6671 41.2531 37.2569 40.4328 36.4366C40.0109 36.0148 39.6945 35.5577 39.4836 35.0655C39.2726 34.5733 39.1672 34.0343 39.1672 33.4601C39.1672 32.8858 39.2726 32.3468 39.4836 31.8546C39.6945 31.3624 40.0109 30.9054 40.4328 30.4835C41.2531 29.6632 42.2609 29.253 43.4562 29.253C44.6633 29.253 45.6711 29.6632 46.4914 30.4835C47.3234 31.3155 47.7453 32.3116 47.7453 33.4718C47.7453 34.6437 47.3234 35.628 46.4914 36.4483C45.6711 37.2569 44.6633 37.6788 43.4562 37.6788V37.6671ZM49.4797 38.7921V33.4718C49.4797 33.2491 49.4679 33.0382 49.4562 32.8273C49.4445 32.6163 49.4211 32.4054 49.3976 32.1827L49.2804 31.7491L49.0343 31.1515L48.8 30.6241L48.5422 30.1437L47.757 29.2648C47.1945 28.6437 46.5031 28.2452 45.8 27.9523C45.0968 27.6593 44.3117 27.5187 43.4562 27.5187C41.7804 27.5187 40.3625 28.1046 39.2023 29.2648C38.0187 30.4366 37.4328 31.8429 37.4328 33.4718C37.4328 35.1241 38.0187 36.5187 39.2023 37.6905C40.3625 38.839 41.7804 39.4366 43.4562 39.4366C44.5929 39.4366 45.6359 39.1437 46.5851 38.5694C46.7843 38.4405 46.9836 38.2999 47.1828 38.1476C47.382 37.9952 47.5695 37.8312 47.7453 37.6554V38.8038C47.7453 39.6944 47.3234 40.4562 46.4797 41.1241C46.0343 41.4757 45.5539 41.7452 45.0265 41.9093C44.4992 42.0733 43.925 42.1554 43.3039 42.1554C43.0578 42.1554 42.8586 42.2374 42.6945 42.4132C42.5187 42.589 42.4367 42.7999 42.4367 43.046C42.4367 43.2804 42.5187 43.4796 42.6945 43.6554C42.8586 43.8312 43.0578 43.9132 43.3039 43.9132C44.9797 43.9132 46.4211 43.4327 47.6281 42.4601C48.8703 41.464 49.4914 40.2452 49.4914 38.8155L49.4797 38.7921ZM60.282 37.6788C59.0984 37.6788 58.1023 37.2687 57.282 36.4483C56.45 35.6046 56.0398 34.6085 56.0398 33.4483C56.0398 32.2999 56.45 31.3038 57.282 30.4483C58.1023 29.628 59.0984 29.2179 60.282 29.2179C61.4656 29.2179 62.4617 29.628 63.282 30.4483C64.1023 31.2804 64.5125 32.2765 64.5125 33.4366C64.5125 34.6202 64.1023 35.6163 63.282 36.4366C62.4617 37.2569 61.4656 37.6671 60.282 37.6671V37.6788ZM60.282 27.4601C58.6414 27.4601 57.2351 28.046 56.0633 29.2179C54.8914 30.3898 54.3054 31.796 54.3054 33.4366C54.3054 35.089 54.8914 36.4952 56.0633 37.6554C57.2351 38.8273 58.6414 39.4132 60.282 39.4132C61.9343 39.4132 63.3289 38.8155 64.489 37.6554C65.6609 36.4835 66.2586 35.089 66.2586 33.4366C66.2586 31.796 65.6609 30.4015 64.489 29.2179C63.3289 28.0577 61.9343 27.4601 60.282 27.4601Z" fill="#DEC79B"/>
</svg>
